<svg xmlns="http://www.w3.org/2000/svg" viewBox="0 0 64 64">
	<path fill="currentColor" d="M21.1 21.39v1.06c.55-.1.97-.13 1.53-.13v4.69h1.35v-5.94h-.76c-.68 0-1.4.11-2.13.32m7.53-.43c-1.55 0-2.84 1.22-2.84 3.19s1.08 2.96 2.69 2.96c1.52 0 2.84-1.21 2.84-3.18s-1.11-2.97-2.69-2.97m-.07 5c-.85 0-1.43-.52-1.43-1.88 0-1.22.6-1.97 1.41-1.97.88 0 1.43.59 1.43 1.85s-.61 2-1.41 2m3.54-4.57v1.06c.55-.1.97-.13 1.53-.13v4.69h1.35v-5.94h-.76c-.68 0-1.4.11-2.13.32m7.53-.43c-1.55 0-2.84 1.22-2.84 3.19s1.08 2.96 2.69 2.96c1.52 0 2.84-1.21 2.84-3.18s-1.12-2.97-2.69-2.97m-.07 5c-.85 0-1.43-.52-1.43-1.88 0-1.22.6-1.97 1.42-1.97.88 0 1.43.59 1.43 1.85s-.61 2-1.41 2m-18.37 6.19c0 2.03 1.08 2.96 2.69 2.96 1.52 0 2.84-1.21 2.84-3.18s-1.11-2.97-2.69-2.97-2.84 1.22-2.84 3.19m4.19-.19c0 1.28-.61 2-1.42 2-.85 0-1.43-.52-1.43-1.88 0-1.22.6-1.97 1.42-1.97.88 0 1.43.59 1.43 1.85M30.38 35v-5.94h-.76c-.68 0-1.4.11-2.14.32v1.06c.55-.1.97-.13 1.53-.13V35h1.36Zm1.79-2.85c0 2.03 1.08 2.96 2.69 2.96 1.52 0 2.84-1.21 2.84-3.18s-1.12-2.97-2.69-2.97-2.84 1.22-2.84 3.19m4.19-.19c0 1.28-.61 2-1.42 2-.85 0-1.43-.52-1.43-1.88 0-1.22.6-1.97 1.42-1.97.88 0 1.43.59 1.43 1.85M41.37 35v-5.94h-.76c-.68 0-1.4.11-2.14.32v1.06c.55-.1.97-.13 1.53-.13V35h1.36ZM21.1 38.44c.55-.1.97-.13 1.53-.13V43h1.35v-5.94h-.76c-.68 0-1.4.11-2.13.32v1.05Zm4.68 1.71c0 2.03 1.08 2.96 2.69 2.96 1.52 0 2.84-1.21 2.84-3.18s-1.12-2.97-2.69-2.97-2.84 1.22-2.84 3.19m2.76-2.04c.88 0 1.43.59 1.43 1.85s-.61 2-1.42 2c-.85 0-1.43-.52-1.43-1.88 0-1.22.6-1.97 1.42-1.97m3.55.33c.55-.1.97-.13 1.53-.13V43h1.35v-5.94h-.76c-.68 0-1.4.11-2.13.32v1.05Zm4.68 1.71c0 2.03 1.08 2.96 2.69 2.96 1.52 0 2.84-1.21 2.84-3.18s-1.12-2.97-2.69-2.97-2.84 1.22-2.84 3.19m2.76-2.04c.88 0 1.43.59 1.43 1.85s-.61 2-1.42 2c-.85 0-1.43-.52-1.43-1.88 0-1.22.6-1.97 1.42-1.97" />
	<path fill="currentColor" d="M51.46 38.41C48.76 46.58 41.06 52.5 32 52.5c-10.69 0-19.8-8.3-20.44-19.3.05-.05.14-.04.25.13.16.26 1.02 2.69 1.08 2.83l2.75 1.62c.66.39 1.5.24 1.99-.34.49-.58.49-1.44 0-2.02l-6.89-8.18c-.31-.36-.76-.57-1.24-.56-.48-.01-.93.19-1.24.56l-6.89 8.18c-.49.58-.49 1.44 0 2.02.49.58 1.33.73 1.99.34l3.42-2.01C8.61 48.05 19.22 57.5 32 57.5c11.46 0 21.18-7.61 24.38-18.04-1.47.9-3.37.79-4.92-1.06m11.17-11.16c-.49-.58-1.33-.73-1.99-.34l-3.34 1.97C55.75 16.28 45 6.5 32 6.5c-11.77 0-21.69 8.01-24.62 18.86 1.41-1.02 3.56-.99 5 .72C14.93 17.65 22.76 11.5 32 11.5c11.06 0 20.19 8.83 20.47 19.98-.05.05-.14.06-.25-.13-.14-.24-.76-2.17-.93-2.72l-2.92-1.72c-.66-.39-1.5-.24-1.99.34-.49.58-.49 1.44 0 2.02l6.89 8.18c.31.36.76.57 1.24.56.48.01.93-.19 1.24-.56l6.89-8.18c.49-.58.49-1.44 0-2.02" />
</svg>
