<svg xmlns="http://www.w3.org/2000/svg" viewBox="0 0 20 20">
	<path fill="currentColor"
		d="M4.076 13.55c.22.01.419.08.613.17 1.601.749 3.208 1.489 4.805 2.245.354.168.67.166 1.02.004 1.602-.746 3.214-1.476 4.814-2.225.49-.23.942-.26 1.422.016.335.19.702.334 1.05.505.257.125.263.228.019.367-.168.096-.35.17-.527.25-2.29 1.03-4.583 2.057-6.87 3.096-.353.16-.667.165-1.02 0-2.38-1.106-4.767-2.201-7.15-3.301-.112-.051-.254-.091-.252-.232.002-.131.142-.162.245-.206.47-.205.943-.406 1.414-.608.133-.057.273-.08.417-.081Zm.007-4.36c.19-.009.372.056.551.14 1.604.745 3.215 1.48 4.81 2.242.404.193.749.181 1.14-.003 1.587-.742 3.182-1.467 4.77-2.208.46-.215.895-.239 1.352.008.349.188.72.341 1.077.514.282.137.294.253.007.392-.589.285-1.188.55-1.786.82-1.84.828-3.683 1.65-5.517 2.49-.398.181-.746.186-1.146 0-2.276-1.063-4.56-2.109-6.842-3.16-.081-.037-.163-.072-.24-.112-.109-.056-.254-.092-.258-.23-.004-.148.15-.175.258-.223.447-.195.897-.383 1.343-.576a1.05 1.05 0 0 1 .481-.095Zm5.83.18c.178.018.34-.058.5-.131l2.276-1.024c1.638-.737 3.277-1.473 4.912-2.213.172-.078.408-.136.399-.36-.008-.203-.25-.217-.401-.286-1.814-.84-3.631-1.671-5.448-2.503-.563-.257-1.13-.51-1.695-.762a.891.891 0 0 0-.774-.004c-2.476 1.136-4.954 2.267-7.43 3.402-.108.049-.26.08-.252.228.008.139.152.175.262.226l7.18 3.31c.146.067.293.129.472.117" />
</svg>