<svg xmlns="http://www.w3.org/2000/svg" viewBox="0 0 64 64">
	<path fill="currentColor" d="M10.67 18.67zm40-8h-8V8A2.67 2.67 0 0 0 40 5.33H24A2.67 2.67 0 0 0 21.33 8v2.67h-8a2.67 2.67 0 0 0-2.67 2.67v5.33h14.28s.15.32-.31.44c-.58.16-11.31 1.43-11.31 1.43V56a2.67 2.67 0 0 0 2.67 2.67h32A2.67 2.67 0 0 0 50.66 56V18.67h2.67v-5.33a2.67 2.67 0 0 0-2.67-2.67ZM24 50.67l-5.33 2.67V24.01H24v26.67Zm10.67 0-5.33 2.67V24.01h5.33v26.67Zm10.67 0-5.33 2.67V24.01h5.33v26.67ZM24.43 10.63v-.8c0-.94-.16-1.7.88-1.7h13.27c1.04 0 .88.76.88 1.7v.8H24.43Z" />
</svg>
