<svg xmlns="http://www.w3.org/2000/svg" viewBox="0 0 64 64">
	<path fill="none" stroke="currentColor" stroke-width="4" stroke-linejoin="round" d="M36.29 5.04c-1.34-.21-2.31.59-2.76 2.7-1.13 5.25-3.62 11.46-6.9 15.44-2.35 2.85-5.44 4.12-8.39 4.62-.09.55-.56.46-.65.42V28.03s-.04-1.02-1-1.02H7v26h10c.55 0 1-.45 1-1v-4h3.58c5.83 0 3.75 4.66 15.17 4.82 2.96.04 8.7.43 12.26-.75 3.33-1.1 4.08-4.05 3.01-5.78 1.01-.5 2.65-1.75 2.9-3.91.25-2.21-1.59-3.45-1.59-3.45.06-.07 2.73-1.03 2.84-3.92.08-2.33-1.88-3.71-1.88-3.71 1.29-.96 2.38-1.96 2.53-4.02.18-2.51-1.99-4.26-4.57-4.26H39.58c-.69 0-1.17-.69-.94-1.34 1.66-4.7 2.07-6.75 2.15-11.05.06-3.56-1.37-5.36-2.74-5.58" />
</svg>
